# xmcd
#
# Track frame offsets:
#	150
#	9700
#	22235
#	33750
#	45762
#	54432
#	65697
#	76702
#	89672
#	100235
#	112347
#	122342
#	133477
#	142657
#	151872
#	165420
#	175150
#	186957
#	198665
#	209215
#
# Disc length: 2964 seconds
#
# Revision: 9
# Processed by: cddbd v1.5.2PL0 Copyright (c) Steve Scherf et al.
# Submitted via: VUPlayer 2.49
#
DISCID=150b9214
DTITLE=Sam Cooke - 20 Greatest Hits
DYEAR=1988
DGENRE=Pop
TTITLE0=Wonderful World
TTITLE1=You Send Me
TTITLE2=Chain Gang
TTITLE3=Twistin' the Night Away
TTITLE4=Only Sixteen
TTITLE5=Cupid
TTITLE6=Having A Party
TTITLE7=Win Your Love for Me
TTITLE8=Just for You
TTITLE9=Bring it On Home To Me
TTITLE10=I'll Come Running Back To You
TTITLE11=Sad Mood
TTITLE12=That's Heaven To Me
TTITLE13=Touch the Hem of His Garment
TTITLE14=Somebody Have Mercy
TTITLE15=Soothe Me
TTITLE16=Nothing Can Change This Love
TTITLE17=Everybody Loves To Cha Cha Cha
TTITLE18=Love You Most of All
TTITLE19=You Were Made for Me
EXTD=
EXTT0=
EXTT1=
EXTT2=
EXTT3=
EXTT4=
EXTT5=
EXTT6=
EXTT7=
EXTT8=
EXTT9=
EXTT10=
EXTT11=
EXTT12=
EXTT13=
EXTT14=
EXTT15=
EXTT16=
EXTT17=
EXTT18=
EXTT19=
PLAYORDER=
